<svg id="Capa_1" data-name="Capa 1" xmlns="http://www.w3.org/2000/svg" viewBox="0 0 800 600"><defs><style>.cls-1{fill:#cceaef;}.cls-2{fill:#0096ad;}</style></defs><title>icono-escenario</title><rect class="cls-1" width="800" height="600"/><path class="cls-2" d="M638.33,155.36A187.15,187.15,0,0,0,505.2,100H307.72a188.5,188.5,0,0,0,0,377H505.2A188.28,188.28,0,0,0,638.33,155.36Zm-12.11,253.4A169.76,169.76,0,0,1,505.46,459h-198a171,171,0,0,1,0-342h198A170.78,170.78,0,0,1,626.22,408.76Z"/><path class="cls-2" d="M227,198V378a27,27,0,0,0,27,27H559a27,27,0,0,0,27-27V198a27,27,0,0,0-27-27H254A27,27,0,0,0,227,198ZM397,332.14a44.94,44.94,0,0,1,0-88.07Zm18-88.07a44.94,44.94,0,0,1,0,88.07ZM245,243h36v90H245Zm0,135V351h45a9,9,0,0,0,9-9V234a9,9,0,0,0-9-9H245V198a9,9,0,0,1,9-9H398v36.65a63,63,0,0,0,0,124.7V387H254A9,9,0,0,1,245,378Zm323-45H532V243h36Zm0-135v27H523a9,9,0,0,0-9,9V342a9,9,0,0,0,9,9h45v27a9,9,0,0,1-9,9H415V350.35a63,63,0,0,0,0-124.7V189H559A9,9,0,0,1,568,198Z"/><path class="cls-2" d="M589.89,171.87A145.54,145.54,0,0,1,607,186.57a9,9,0,0,0,12.72-12.7,163.16,163.16,0,0,0-19.28-16.52,9,9,0,1,0-10.59,14.52Z"/><path class="cls-2" d="M642.78,202.53a9.19,9.19,0,0,0-11.42-3.73,9,9,0,0,0-4,13A143.4,143.4,0,0,1,649.2,288c0,79.4-64.59,144-144,144H308.79c-75,0-138.35-57-144.58-131.73C157.14,215.36,224.25,144,307.7,144H505.27a142.8,142.8,0,0,1,56,11.35l1.42.62a9.19,9.19,0,0,0,11.45-3.3,9,9,0,0,0-4-13.08c-.62-.28-1.24-.54-1.87-.81A160.6,160.6,0,0,0,505.27,126H308.93c-84.34,0-155.64,64.14-162.64,148.19C138.34,369.72,213.83,450,307.72,450H505.2c89.33,0,162-72.67,162-162A161.35,161.35,0,0,0,642.78,202.53Z"/></svg>