<?xml version="1.0" encoding="utf-8"?>
<!-- Generator: Adobe Illustrator 22.0.1, SVG Export Plug-In . SVG Version: 6.00 Build 0)  -->
<svg version="1.1" id="Capa_1" xmlns="http://www.w3.org/2000/svg" xmlns:xlink="http://www.w3.org/1999/xlink" x="0px" y="0px"
	 viewBox="0 0 1366 232" style="enable-background:new 0 0 1366 232;" xml:space="preserve">
<style type="text/css">
	.st0{fill:none;stroke:#000000;stroke-width:2.08;stroke-miterlimit:10;}
	.st1{fill:#95C11E;}
	.st2{fill:#FFFFFF;}
	.st3{fill:#0098B1;}
	.st4{fill:#3D3A48;}
	.st5{fill:none;stroke:#3D3A48;stroke-width:2.87;stroke-linecap:round;stroke-miterlimit:10;}
</style>
<title>logoinder02</title>
<g id="lineaAtras">
	<path class="st0" d="M65.3,127.4L67,93.1c0.6-11.3,10-20.2,21.7-20.6l865-26.8"/>
</g>
<g id="cuadroTitulo">
	<path class="st1" d="M23,241V118.1c0-12.9,9.9-23.6,22.4-24l1253.5-45.6c13.2-0.5,24.1,10.4,24.1,24V241H23z"/>
	<path class="st2" d="M486.5,181c0,1.9,0.5,3.7,1.5,5.3c1.7,2.6,4.6,3.8,8.8,3.8c1.7,0,3.5-0.3,5.1-0.8c3-1.1,4.5-3,4.5-5.8
		c0-2.1-0.6-3.6-1.9-4.5c-1.9-1.1-3.9-1.9-6-2.3l-5-1.2c-2.5-0.4-4.8-1.3-7-2.6c-2.4-1.6-3.7-4.4-3.5-7.2c-0.1-3.2,1.2-6.3,3.5-8.5
		c2.3-2.2,5.6-3.3,9.8-3.3c3.5-0.1,7,0.9,10,2.9c2.7,2,4.1,5.1,4.1,9.4h-4.9c-0.1-1.7-0.7-3.3-1.6-4.8c-1.5-2-4.1-3-7.7-3
		c-2.9,0-5,0.6-6.3,1.9c-1.2,1.2-1.9,2.8-1.9,4.5c-0.1,1.7,0.8,3.3,2.3,4.1c2.2,0.9,4.4,1.6,6.7,2.1l5.2,1.2
		c2.1,0.4,4.1,1.2,5.8,2.4c2.4,1.9,3.7,4.8,3.5,7.9c0,4.3-1.5,7.3-4.5,9.2c-3.2,1.9-6.8,2.8-10.5,2.8c-4.7,0-8.3-1.2-10.9-3.7
		c-2.6-2.5-3.9-5.8-3.9-9.9L486.5,181z"/>
	<path class="st2" d="M518.1,154.9h4.8v5.4h-4.8V154.9z M518.1,165.5h4.8v28h-4.8V165.5z"/>
	<path class="st2" d="M532.7,184.6c0,1.3,0.5,2.6,1.2,3.6c1.2,1.5,3.3,2.3,6.3,2.3c1.6,0,3.2-0.4,4.7-1.1c1.3-0.7,2.1-2.1,2-3.5
		c0-1.2-0.6-2.2-1.6-2.8c-1.3-0.6-2.7-1-4.1-1.3l-3.8-0.9c-1.9-0.4-3.7-1.1-5.3-2c-1.9-1.1-3.1-3.1-3.1-5.3c-0.1-2.5,1-4.9,2.9-6.5
		c2.2-1.7,5-2.6,7.8-2.5c4.3,0,7.3,1.2,9.2,3.7c1.1,1.5,1.7,3.3,1.7,5.1h-4.4c-0.1-1.1-0.5-2.1-1.2-2.9c-1.1-1.2-3-1.9-5.7-1.9
		c-1.4-0.1-2.9,0.2-4.1,1c-0.9,0.6-1.4,1.6-1.4,2.7c0,1.2,0.7,2.4,1.8,2.9c1,0.5,2,0.9,3.1,1.1l3.2,0.8c2.4,0.4,4.7,1.3,6.9,2.4
		c1.9,1.3,2.9,3.4,2.7,5.7c0,2.5-1,4.8-2.9,6.5c-1.9,1.8-4.8,2.7-8.7,2.7c-4.2,0-7.2-0.9-8.9-2.9c-1.8-1.9-2.8-4.4-2.8-7.1
		L532.7,184.6z"/>
	<path class="st2" d="M557.5,157.5h4.7v7.9h4.5v3.9h-4.5v18.4c-0.1,0.8,0.3,1.6,1,2c0.6,0.2,1.2,0.3,1.8,0.3h0.7
		c0.3,0,0.6,0,0.9-0.1v3.8c-0.5,0.2-1.1,0.3-1.7,0.3c-0.6,0.1-1.3,0.1-1.9,0.1c-2.2,0-3.7-0.6-4.5-1.7c-0.8-1.3-1.2-2.8-1.2-4.4
		v-18.7h-3.8v-3.9h3.8L557.5,157.5z"/>
	<path class="st2" d="M588.7,166.1c1.7,0.8,3.2,2.1,4.2,3.6c1,1.5,1.6,3.2,1.9,5c0.3,2,0.5,4.1,0.4,6.2h-20.3c0,2.4,0.7,4.8,2,6.9
		c1.4,1.8,3.5,2.8,5.8,2.6c2.2,0.1,4.3-0.8,5.8-2.4c0.8-1,1.4-2.1,1.7-3.3h4.6c-0.2,1.2-0.6,2.4-1.2,3.4c-0.6,1.2-1.4,2.2-2.3,3.1
		c-1.5,1.4-3.3,2.4-5.2,2.8c-1.2,0.3-2.5,0.4-3.8,0.4c-3.3,0-6.5-1.3-8.8-3.8c-2.4-2.5-3.6-6.1-3.6-10.7s1.2-8.3,3.6-11
		c2.3-2.8,5.8-4.3,9.5-4.2C584.9,164.7,586.9,165.2,588.7,166.1z M590.3,177.1c-0.1-1.7-0.5-3.4-1.3-4.9c-1.3-2.3-3.4-3.4-6.4-3.4
		c-2,0-4,0.8-5.4,2.4c-1.5,1.6-2.3,3.8-2.3,6L590.3,177.1z"/>
	<path class="st2" d="M601.1,165.3h4.6v4c0.9-1.1,1.9-2.1,3-3c1.5-1.1,3.4-1.6,5.3-1.6c1.9-0.1,3.8,0.5,5.4,1.6
		c0.9,0.8,1.6,1.7,2.1,2.8c1.8-2.8,5-4.5,8.4-4.4c3.8,0,6.3,1.4,7.7,4.1c0.8,1.9,1.2,3.9,1.1,5.9v18.7h-4.9v-19.6
		c0-1.9-0.5-3.2-1.4-3.9c-1-0.7-2.1-1.1-3.3-1.1c-1.8,0-3.5,0.6-4.8,1.9c-1.3,1.2-2,3.3-2,6.2v16.4h-4.8v-18.4
		c0.1-1.4-0.1-2.9-0.7-4.2c-0.7-1.3-2-2-4-2c-1.8,0-3.6,0.8-4.8,2.1c-1.5,1.4-2.2,3.9-2.2,7.5v14.9h-4.7L601.1,165.3z"/>
	<path class="st2" d="M660.5,176.4c0.9,0,1.7-0.6,2.2-1.4c0.2-0.6,0.3-1.2,0.3-1.8c0.1-1.4-0.5-2.7-1.7-3.5
		c-1.5-0.8-3.2-1.2-4.9-1.1c-2.4,0-4.2,0.7-5.2,2c-0.7,1-1,2.1-1.1,3.3h-4.4c0.1-3.5,1.2-5.9,3.3-7.3c2.2-1.4,4.8-2.1,7.5-2
		c2.8-0.1,5.6,0.5,8,1.9c2,1.3,3.2,3.5,3,5.9v16.2c0,0.4,0.1,0.8,0.3,1.2c0.3,0.3,0.8,0.5,1.3,0.4c0.2,0,0.4,0,0.7,0
		s0.5-0.1,0.8-0.1v3.5c-0.5,0.2-1.1,0.3-1.7,0.4c-0.5,0.1-1,0.1-1.6,0.1c-1.4,0.1-2.8-0.6-3.5-1.7c-0.4-0.8-0.7-1.7-0.8-2.6
		c-1.1,1.4-2.5,2.5-4.1,3.3c-1.8,0.9-3.9,1.4-5.9,1.4c-2.3,0.1-4.6-0.8-6.3-2.4c-1.6-1.5-2.5-3.7-2.5-5.9c-0.1-2.3,0.8-4.5,2.4-6.1
		c1.8-1.5,4-2.4,6.3-2.6L660.5,176.4z M650.6,189.2c1,0.8,2.2,1.2,3.5,1.2c1.7,0,3.3-0.4,4.8-1.1c2.5-1.1,4-3.6,3.9-6.3v-3.8
		c-0.7,0.4-1.4,0.7-2.2,0.9c-0.9,0.2-1.8,0.4-2.7,0.5l-2.8,0.4c-1.3,0.1-2.6,0.5-3.8,1.1c-1.4,0.8-2.3,2.3-2.2,3.9
		C649.1,187.2,649.6,188.4,650.6,189.2L650.6,189.2z"/>
	<path class="st2" d="M705.3,166.2c1.1,0.8,2,1.7,2.8,2.8v-14.2h4.5v38.7h-4.2v-3.9c-0.9,1.6-2.3,2.9-3.9,3.8
		c-1.6,0.8-3.3,1.2-5.1,1.2c-3.1,0-6.1-1.5-8-4c-2.3-2.7-3.4-6.2-3.4-10.5c-0.1-3.8,1-7.5,3.1-10.6c2-3,5.3-4.7,8.9-4.5
		C701.9,164.7,703.7,165.2,705.3,166.2z M694.9,187.3c1.3,2,3.6,3.2,6.1,3c2.1,0,4.1-1,5.3-2.8c1.4-1.9,2.1-4.6,2.1-8.1
		s-0.7-6.2-2.2-7.9c-1.3-1.6-3.2-2.6-5.3-2.6c-2.2-0.1-4.4,1-5.7,2.7c-1.5,1.8-2.2,4.5-2.2,8C692.9,182.3,693.5,185,694.9,187.3
		L694.9,187.3z"/>
	<path class="st2" d="M736.9,166.1c1.7,0.8,3.2,2.1,4.2,3.6c1,1.5,1.6,3.2,1.9,5c0.3,2,0.5,4.1,0.4,6.2h-20.3c0,2.4,0.7,4.8,2,6.9
		c1.4,1.8,3.5,2.8,5.8,2.6c2.2,0.1,4.3-0.8,5.8-2.4c0.8-1,1.4-2.1,1.7-3.3h4.6c-0.2,1.2-0.6,2.4-1.2,3.4c-0.6,1.2-1.4,2.2-2.3,3.1
		c-1.4,1.4-3.3,2.4-5.2,2.8c-1.2,0.3-2.5,0.4-3.8,0.4c-3.3,0-6.5-1.3-8.8-3.8c-2.4-2.5-3.6-6.1-3.6-10.7c0-4.6,1.2-8.3,3.6-11
		c2.3-2.8,5.8-4.3,9.5-4.2C733.2,164.7,735.1,165.2,736.9,166.1z M738.6,177.1c-0.1-1.7-0.5-3.4-1.3-4.9c-1.3-2.3-3.4-3.4-6.4-3.4
		c-2,0-4,0.8-5.4,2.4c-1.5,1.6-2.3,3.8-2.3,6L738.6,177.1z"/>
	<path class="st2" d="M764.2,154.9h4.8v5.4h-4.8V154.9z M764.2,160.2h4.8v33.2h-4.8V160.2z"/>
	<path class="st2" d="M776,165.3h4.5v4c1.1-1.5,2.5-2.7,4.2-3.6c1.5-0.7,3.2-1.1,4.9-1.1c4,0,6.6,1.4,8,4.2c0.9,2.1,1.3,4.3,1.2,6.5
		v18H794v-17.7c0.1-1.4-0.2-2.8-0.8-4.1c-0.8-1.7-2.6-2.8-4.5-2.6c-0.9,0-1.8,0.1-2.7,0.3c-2.4,0.8-4.2,2.8-4.9,5.2
		c-0.3,1.4-0.4,2.8-0.3,4.2v14.7H776V165.3z"/>
	<path class="st2" d="M807.9,156.7c1.1-1.6,3.2-2.4,6.3-2.4h0.9l1.1,0.1v4.3l-1.1-0.1h-0.6c-1.4,0-2.3,0.4-2.6,1.1
		c-0.4,1.9-0.5,3.8-0.4,5.7h4.7v3.7h-4.7v24.3h-4.6v-24.3H803v-3.7h3.9V161C806.8,159.5,807.2,158,807.9,156.7z"/>
	<path class="st2" d="M850.3,165.3h4.5v4.9c0.6-1.3,1.6-2.5,2.7-3.4c1.3-1.3,3.1-2,4.9-2h0.4l1.1,0.1v5c-0.3-0.1-0.5-0.1-0.8-0.1
		h-0.8c-2.1-0.1-4.1,0.7-5.4,2.3c-1.2,1.5-1.9,3.4-1.9,5.3v16.2h-4.7L850.3,165.3z"/>
	<path class="st2" d="M867.9,165.3h4.6v4c0.9-1.1,1.9-2.1,3-3c1.5-1.1,3.4-1.6,5.3-1.6c1.9-0.1,3.8,0.5,5.4,1.6
		c0.9,0.8,1.6,1.7,2.1,2.8c1.8-2.8,5-4.5,8.4-4.4c3.8,0,6.3,1.4,7.7,4.1c0.8,1.9,1.2,3.9,1.1,5.9v18.7h-4.9v-19.6
		c0-1.9-0.5-3.2-1.4-3.9c-1-0.7-2.2-1.1-3.4-1.1c-1.8,0-3.5,0.6-4.8,1.9c-1.3,1.2-2,3.3-2,6.2v16.4h-4.8v-18.4
		c0.1-1.4-0.1-2.9-0.7-4.2c-0.7-1.3-2-2-4-2c-1.8,0-3.6,0.8-4.8,2.1c-1.4,1.4-2.2,3.9-2.2,7.5v14.9h-4.7L867.9,165.3z"/>
	<path class="st2" d="M927.3,176.4c0.9,0,1.7-0.6,2.2-1.4c0.2-0.6,0.3-1.2,0.3-1.8c0.1-1.4-0.5-2.7-1.7-3.5
		c-1.5-0.8-3.2-1.2-4.9-1.1c-2.4,0-4.2,0.7-5.2,2c-0.7,1-1,2.1-1.1,3.3h-4.4c0.1-3.5,1.2-5.9,3.3-7.3c2.2-1.4,4.8-2.1,7.5-2
		c2.8-0.1,5.6,0.5,8,1.9c2,1.3,3.2,3.5,3,5.9v16.2c0,0.4,0.1,0.8,0.3,1.2c0.3,0.3,0.8,0.5,1.3,0.4c0.2,0,0.4,0,0.7,0
		s0.5-0.1,0.8-0.1v3.5c-0.5,0.2-1.1,0.3-1.7,0.4c-0.5,0.1-1,0.1-1.6,0.1c-1.4,0.1-2.8-0.6-3.5-1.7c-0.4-0.8-0.7-1.7-0.8-2.6
		c-1.1,1.4-2.5,2.5-4.1,3.3c-1.8,0.9-3.9,1.4-5.9,1.4c-2.3,0.1-4.6-0.8-6.3-2.4c-1.6-1.5-2.5-3.7-2.5-5.9c-0.1-2.3,0.8-4.5,2.4-6.1
		c1.8-1.5,4-2.4,6.3-2.6L927.3,176.4z M917.4,189.2c1,0.8,2.2,1.2,3.5,1.2c1.7,0,3.3-0.4,4.8-1.1c2.5-1.1,4-3.6,3.9-6.3v-3.8
		c-0.7,0.4-1.4,0.7-2.2,0.9c-0.9,0.2-1.8,0.4-2.7,0.5L922,181c-1.3,0.1-2.6,0.5-3.8,1.1c-1.4,0.8-2.3,2.3-2.2,3.9
		C915.9,187.2,916.5,188.4,917.4,189.2L917.4,189.2z"/>
	<path class="st2" d="M960.4,166.8c2,1.5,3.2,4.2,3.6,8h-4.6c-0.2-1.6-0.9-3.1-1.9-4.3c-1-1.1-2.6-1.7-4.8-1.7c-3,0-5.1,1.5-6.4,4.4
		c-0.9,2.2-1.3,4.6-1.2,7.1c-0.1,2.5,0.5,5,1.8,7.1c2.2,3.1,6.5,3.8,9.5,1.6c0.2-0.2,0.5-0.3,0.7-0.5c1.2-1.4,2-3.1,2.4-4.9h4.6
		c-0.5,3.7-1.8,6.5-3.9,8.2c-2.3,1.8-5.1,2.7-8,2.6c-3.4,0.1-6.6-1.4-8.7-4c-2.2-2.9-3.4-6.4-3.3-10.1c0-4.9,1.2-8.8,3.6-11.5
		c2.2-2.7,5.6-4.2,9.1-4.1C955.5,164.4,958.2,165.2,960.4,166.8z"/>
	<path class="st2" d="M968.7,154.9h4.8v5.4h-4.8V154.9z M968.7,165.5h4.8v28h-4.8V165.5z"/>
	<polygon class="st2" points="997.2,154 991.5,154 986.7,161.6 990.3,161.6 	"/>
	<path class="st2" d="M1010.2,165.3h4.5v4c1.1-1.5,2.5-2.7,4.2-3.6c1.5-0.7,3.2-1.1,4.9-1.1c4,0,6.6,1.4,8,4.2
		c0.9,2.1,1.3,4.3,1.2,6.5v18h-4.8v-17.7c0.1-1.4-0.2-2.8-0.8-4.1c-0.8-1.7-2.6-2.8-4.5-2.6c-0.9,0-1.8,0.1-2.7,0.3
		c-2.4,0.8-4.2,2.8-4.9,5.2c-0.3,1.4-0.4,2.8-0.3,4.2v14.7h-4.7L1010.2,165.3z"/>
	<path class="st2" d="M1055.2,154.9h7.4l11,32.6l10.9-32.6h7.4v38.6h-4.9v-22.8c0-0.8,0-2.1,0.1-3.9s0.1-3.8,0.1-5.9l-10.9,32.6
		h-5.2l-11-32.6v1.2c0,0.9,0,2.4,0.1,4.3c0.1,1.9,0.1,3.4,0.1,4.3v22.8h-4.9L1055.2,154.9z"/>
	<path class="st2" d="M1099.1,154.9h4.8v5.4h-4.8V154.9z M1099.1,165.5h4.8v28h-4.8V165.5z"/>
	<path class="st2" d="M1113.8,184.6c0,1.3,0.5,2.6,1.2,3.6c1.2,1.5,3.3,2.3,6.3,2.3c1.6,0,3.2-0.4,4.7-1.1c1.3-0.7,2.1-2.1,2-3.5
		c0-1.2-0.6-2.2-1.6-2.8c-1.3-0.6-2.7-1-4.1-1.3l-3.8-0.9c-1.9-0.4-3.7-1.1-5.3-2c-1.9-1.1-3.1-3.1-3.1-5.3c-0.1-2.5,1-4.9,2.9-6.5
		c2.2-1.7,5-2.6,7.8-2.5c4.3,0,7.3,1.2,9.2,3.7c1.1,1.5,1.7,3.3,1.7,5.1h-4.4c-0.1-1.1-0.5-2.1-1.2-2.9c-1.1-1.2-3-1.9-5.7-1.9
		c-1.4-0.1-2.9,0.2-4.1,1c-0.9,0.6-1.4,1.6-1.4,2.7c0,1.2,0.7,2.4,1.8,2.9c1,0.5,2,0.9,3.1,1.1l3.2,0.8c2.4,0.4,4.7,1.3,6.9,2.4
		c1.9,1.3,2.9,3.4,2.7,5.7c0,2.5-1,4.8-2.9,6.5c-1.9,1.8-4.8,2.7-8.7,2.7c-4.2,0-7.2-0.9-8.9-2.9c-1.8-1.9-2.8-4.4-2.8-7.1
		L1113.8,184.6z"/>
	<path class="st2" d="M1137.6,154.9h4.8v5.4h-4.8V154.9z M1137.6,165.5h4.8v28h-4.8V165.5z"/>
	<path class="st2" d="M1179.2,165.3h4.4v4c1.1-1.5,2.5-2.7,4.2-3.6c1.5-0.7,3.2-1.1,4.9-1.1c4,0,6.6,1.4,8,4.2
		c0.9,2.1,1.3,4.3,1.2,6.5v18h-4.8v-17.7c0.1-1.4-0.2-2.8-0.8-4.1c-0.8-1.7-2.6-2.8-4.5-2.6c-0.9,0-1.8,0.1-2.7,0.3
		c-2.4,0.8-4.2,2.8-4.9,5.2c-0.3,1.4-0.4,2.8-0.3,4.2v14.7h-4.7L1179.2,165.3z"/>
	<path class="st2" d="M1223.8,176.4c0.9,0,1.7-0.6,2.2-1.4c0.2-0.6,0.3-1.2,0.3-1.8c0.1-1.4-0.5-2.7-1.7-3.5
		c-1.5-0.8-3.2-1.2-4.9-1.1c-2.4,0-4.2,0.7-5.2,2c-0.7,1-1,2.1-1.1,3.3h-4.4c0.1-3.5,1.2-5.9,3.3-7.3c2.2-1.4,4.8-2.1,7.4-2
		c2.8-0.1,5.6,0.5,8,1.9c2,1.3,3.2,3.5,3,5.9v16.2c0,0.4,0.1,0.8,0.3,1.2c0.3,0.3,0.8,0.5,1.3,0.4c0.2,0,0.4,0,0.7,0
		c0.3,0,0.5-0.1,0.8-0.1v3.5c-0.5,0.2-1.1,0.3-1.7,0.4c-0.5,0.1-1,0.1-1.6,0.1c-1.4,0.1-2.8-0.6-3.5-1.7c-0.4-0.8-0.7-1.7-0.8-2.6
		c-1.1,1.4-2.5,2.5-4.1,3.3c-1.8,0.9-3.9,1.4-5.9,1.4c-2.3,0.1-4.6-0.8-6.3-2.5c-1.6-1.5-2.5-3.7-2.5-5.9c-0.1-2.3,0.8-4.5,2.4-6.1
		c1.8-1.5,4-2.4,6.3-2.6L1223.8,176.4z M1213.9,189.2c1,0.8,2.2,1.2,3.5,1.2c1.7,0,3.3-0.4,4.8-1.1c2.5-1.1,4-3.6,3.9-6.3v-3.8
		c-0.7,0.4-1.4,0.7-2.2,0.9c-0.9,0.2-1.8,0.4-2.7,0.5l-2.8,0.4c-1.3,0.1-2.6,0.5-3.8,1.1c-1.4,0.8-2.3,2.3-2.2,3.9
		C1212.4,187.2,1212.9,188.4,1213.9,189.2L1213.9,189.2z"/>
	<path class="st2" d="M1238.6,154.9h4.7v38.6h-4.7V154.9z"/>
	<path class="st3" d="M102,184.4c-1.2-2.4-0.3-5.4,2.2-6.6c0.1,0,0.1-0.1,0.2-0.1l10.9-4.9c1.6-0.7,3.5,0,4.3,1.5
		c0.8,1.8,1.9,3.4,3.3,4.8c2.9,2,5.3,1.9,9.5,1.9c3.2,0,4.8,0,8.2-0.2c2.8-0.2,3.5-1.5,3.5-3.6s-0.3-4.5-1.9-6.1s-8.4-1.4-15-2.2
		c-9.9-1.3-15.5-5.3-19.7-9.3s-5.7-11.2-5.7-17.3c0-4,1.8-8,4-11.6c2.3-3.7,5.6-6.6,9.6-8.4c4.3-2,10.1-3.1,17.6-3.1
		c9.1,0,15.5,0.1,20.3,3.8c3.8,2.9,8.4,6.7,10.7,12.1c1,2.4-0.1,5.1-2.5,6.2c-0.1,0-0.2,0.1-0.3,0.1l-11.3,3.8c-2.4,0.8-5-0.4-6-2.8
		c-0.4-1.1-1.1-2-2-2.8c-1.8-1.6-6.1-2.1-9.2-2.1c-2.6,0-6.2,0.5-7.6,1.7c-1.3,1.1-2,2.7-2,4.3c0,1.3,0.6,2.5,1.6,3.4
		c1,1,4.6,1.8,9.6,2.5c10.1,1.6,15.5,1.9,19.7,4.2c3.4,1.7,6.2,4.5,7.9,7.9c1.9,3.5,2.9,7.5,2.9,11.6c0.1,4.9-1.2,9.7-3.7,13.9
		c-2.5,4.2-6.2,7.5-10.6,9.6c-4.6,2.2-10.3,3.3-17.2,3.3c-12.2,0-20.2-2.9-25.3-7.7C105.4,190,103.4,187.4,102,184.4z"/>
	<path class="st3" d="M174.6,120.5h20.7v78h-20.7V120.5z"/>
	<path class="st3" d="M206.2,120.5h17.2c1.9,0,3.6,1.1,4.4,2.7l17.7,34.8l16.7-34.8c0.8-1.7,2.6-2.8,4.5-2.8h17.7v73
		c0,2.8-2.2,5-5,5H269c-2.8,0-5-2.2-5-5c0-0.1,0-0.3,0-0.4c-0.9-14.5,0.9-28.8,3.4-43.3l-12.7,30.7c-0.7,1.8-2.5,3-4.4,3h-10
		c-1.9,0-3.7-1.2-4.4-3l-12.5-29.7c1.4,11.4,5.1,24.8,3.8,42.3c0.3,2.7-1.7,5.2-4.5,5.5c-0.2,0-0.3,0-0.5,0h-11c-2.8,0-5-2.2-5-5
		L206.2,120.5z"/>
	<path class="st2" d="M328.6,200.6h-6c-14.1,0.1-25.6-11.2-25.7-25.3v-31.5c0.1-14.1,11.6-25.4,25.7-25.3h6
		c14.1-0.1,25.6,11.2,25.7,25.3v31.5C354.2,189.4,342.7,200.7,328.6,200.6z M322.6,124.1c-11-0.1-19.9,8.7-20,19.7v31.5
		c0.1,11,9,19.8,20,19.7h6c11,0.1,19.9-8.7,20-19.7v-31.5c-0.1-11-9-19.8-20-19.7L322.6,124.1z"/>
	<polygon class="st2" points="422.1,199 374.9,131.8 374.9,197.4 369.2,197.4 369.2,120.8 374.4,121.1 421.6,188.3 421.6,120.5 
		427.3,120.5 427.3,199 	"/>
	<path class="st4" d="M322.8,167.8l-1.4,47.5c0,0.7,0.5,1.3,1.2,1.4c0.3,0,0.7-0.1,0.9-0.4l8.3-8c0.5-0.5,1.3-0.5,1.8,0
		c0.1,0.1,0.2,0.3,0.3,0.5l7.1,19.6c0.2,0.7,1,1,1.7,0.8c0,0,0,0,0,0l10.2-4.1c0.7-0.3,1-1.1,0.7-1.7c0,0,0,0,0-0.1l-8.7-18.6
		c-0.3-0.7,0-1.4,0.6-1.7c0.2-0.1,0.4-0.1,0.6-0.1l10.5,0.4c0.7,0,1.3-0.5,1.4-1.2c0-0.4-0.1-0.7-0.4-1L325,166.9
		c-0.5-0.5-1.3-0.5-1.8,0C322.9,167.1,322.8,167.5,322.8,167.8z"/>
	<line class="st5" x1="306.2" y1="181.8" x2="316" y2="176.3"/>
	<line class="st5" x1="307.1" y1="164.3" x2="316" y2="169.4"/>
	<line class="st5" x1="319.3" y1="153.9" x2="322.3" y2="163.1"/>
	<line class="st5" x1="330.7" y1="163.6" x2="336" y2="154.5"/>
	<line class="st5" x1="336.2" y1="169.4" x2="345.7" y2="165.5"/>
	<path class="st2" d="M991.6,194.8c-3.8,0-12.8-1.5-12.8-15.2c0-10.6,6.4-15.3,12.8-15.3c7.9,0,12.7,5.8,12.7,15.4
		C1004.2,188.6,999,194.8,991.6,194.8z M991.6,168.8c-5,0-8.2,4.2-8.2,10.8c0,7.1,2.8,10.7,8.2,10.7c4.9,0,8.2-4.2,8.2-10.6
		C999.8,172.4,997,168.8,991.6,168.8z"/>
	<path class="st2" d="M1161.6,194.8c-3.8,0-12.8-1.5-12.8-15.2c0-10.6,6.4-15.3,12.8-15.3c7.9,0,12.7,5.8,12.7,15.4
		C1174.2,188.6,1169,194.8,1161.6,194.8z M1161.6,168.8c-5,0-8.2,4.2-8.2,10.8c0,7.1,2.8,10.7,8.2,10.7c4.9,0,8.2-4.2,8.2-10.6
		C1169.8,172.4,1167,168.8,1161.6,168.8z"/>
	<path class="st2" d="M832.2,194.8c-3.8,0-12.8-1.5-12.8-15.2c0-10.6,6.4-15.3,12.8-15.3c7.9,0,12.7,5.8,12.7,15.4
		C844.9,188.6,839.7,194.8,832.2,194.8z M832.2,168.8c-5,0-8.2,4.2-8.2,10.8c0,7.1,2.8,10.7,8.2,10.7c4.9,0,8.2-4.2,8.2-10.6
		C840.4,172.4,837.7,168.8,832.2,168.8z"/>
</g>
<g id="cuadroSuperior">
	<path class="st3" d="M396.5-4.3l10.1,84.4c1.4,10.5,10.2,18.5,20.7,18.7l795.2,20.8c11.3,0.3,20.9-8.2,21.9-19.5L1254-5.4
		L396.5-4.3z"/>
</g>
</svg>
